<svg width="390" height="180" viewBox="0 0 390 180" fill="none" xmlns="http://www.w3.org/2000/svg">
<g opacity="0.2">
<path fill-rule="evenodd" clip-rule="evenodd" d="M0.825802 90L-20.4846 33.3013L-17.6764 32.2458L4.0307 90L-17.6764 147.754L-20.4846 146.699L0.825802 90Z" fill="#CBCDFF"/>
<path fill-rule="evenodd" clip-rule="evenodd" d="M25.3411 90L4.03064 33.3013L6.83884 32.2458L28.546 90L6.83884 147.754L4.03064 146.699L25.3411 90Z" fill="#CBCDFF"/>
<path fill-rule="evenodd" clip-rule="evenodd" d="M49.8564 90L28.546 33.3013L31.3542 32.2458L53.0613 90L31.3542 147.754L28.546 146.699L49.8564 90Z" fill="#CBCDFF"/>
<path fill-rule="evenodd" clip-rule="evenodd" d="M74.3717 90L53.0613 33.3013L55.8695 32.2458L77.5766 90L55.8695 147.754L53.0613 146.699L74.3717 90Z" fill="#CBCDFF"/>
<path fill-rule="evenodd" clip-rule="evenodd" d="M98.8871 90L77.5767 33.3013L80.3849 32.2458L102.092 90L80.3849 147.754L77.5767 146.699L98.8871 90Z" fill="#CBCDFF"/>
<path fill-rule="evenodd" clip-rule="evenodd" d="M123.402 90L102.092 33.3013L104.9 32.2458L126.607 90L104.9 147.754L102.092 146.699L123.402 90Z" fill="#CBCDFF"/>
<path fill-rule="evenodd" clip-rule="evenodd" d="M147.918 90L126.607 33.3013L129.415 32.2458L151.123 90L129.415 147.754L126.607 146.699L147.918 90Z" fill="#CBCDFF"/>
<path fill-rule="evenodd" clip-rule="evenodd" d="M172.433 90L151.123 33.3013L153.931 32.2458L175.638 90L153.931 147.754L151.123 146.699L172.433 90Z" fill="#CBCDFF"/>
<path fill-rule="evenodd" clip-rule="evenodd" d="M196.948 90L175.638 33.3013L178.446 32.2458L200.153 90L178.446 147.754L175.638 146.699L196.948 90Z" fill="#CBCDFF"/>
<path fill-rule="evenodd" clip-rule="evenodd" d="M221.464 90L200.153 33.3013L202.961 32.2458L224.669 90L202.961 147.754L200.153 146.699L221.464 90Z" fill="#CBCDFF"/>
<path fill-rule="evenodd" clip-rule="evenodd" d="M245.979 90L224.669 33.3013L227.477 32.2458L249.184 90L227.477 147.754L224.669 146.699L245.979 90Z" fill="#CBCDFF"/>
<path fill-rule="evenodd" clip-rule="evenodd" d="M270.494 90L249.184 33.3013L251.992 32.2458L273.699 90L251.992 147.754L249.184 146.699L270.494 90Z" fill="#CBCDFF"/>
<path fill-rule="evenodd" clip-rule="evenodd" d="M295.01 90L273.699 33.3013L276.507 32.2458L298.215 90L276.507 147.754L273.699 146.699L295.01 90Z" fill="#CBCDFF"/>
<path fill-rule="evenodd" clip-rule="evenodd" d="M319.525 90L298.214 33.3013L301.023 32.2458L322.73 90L301.023 147.754L298.214 146.699L319.525 90Z" fill="#CBCDFF"/>
<path fill-rule="evenodd" clip-rule="evenodd" d="M344.04 90L322.73 33.3013L325.538 32.2458L347.245 90L325.538 147.754L322.73 146.699L344.04 90Z" fill="#CBCDFF"/>
<path fill-rule="evenodd" clip-rule="evenodd" d="M368.556 90L347.245 33.3013L350.053 32.2458L371.76 90L350.053 147.754L347.245 146.699L368.556 90Z" fill="#CBCDFF"/>
<path fill-rule="evenodd" clip-rule="evenodd" d="M393.071 90L371.76 33.3013L374.569 32.2458L396.276 90L374.569 147.754L371.76 146.699L393.071 90Z" fill="#CBCDFF"/>
</g>
<path fill-rule="evenodd" clip-rule="evenodd" d="M139.698 69.5552C142.231 67.0229 146.354 67.0229 148.887 69.5552C151.42 72.0875 151.42 76.2102 148.887 78.7425C147.42 80.2093 145.412 80.8733 143.373 80.5799C143.281 80.5645 143.173 80.5645 143.08 80.5799C142.478 80.5027 141.845 80.5799 141.242 80.8579C140.393 81.2439 139.791 81.9541 139.497 82.7725C139.204 83.5754 139.219 84.4865 139.605 85.3048C141.783 90.0143 140.779 95.6502 137.103 99.3251C133.428 103 127.791 104.004 123.081 101.827C122.231 101.441 121.32 101.425 120.502 101.734C119.698 102.027 119.019 102.629 118.633 103.463C118.386 104.004 118.293 104.56 118.324 105.115C118.309 105.223 118.309 105.332 118.324 105.44C118.664 107.509 117.984 109.624 116.502 111.106C113.969 113.639 109.845 113.639 107.313 111.106C106.077 109.871 105.413 108.25 105.413 106.505C105.413 104.776 106.093 103.139 107.313 101.904C108.78 100.437 110.788 99.7729 112.826 100.066C112.857 100.066 112.888 100.066 112.934 100.066C113.15 100.113 113.367 100.143 113.598 100.143C114.077 100.143 114.556 100.051 115.004 99.8346C115.838 99.4486 116.424 98.7692 116.733 97.9818C117.042 97.1634 117.042 96.2369 116.641 95.3877C114.463 90.6782 115.467 85.0423 119.142 81.3674C122.818 77.6925 128.455 76.6888 133.165 78.866C133.999 79.252 134.926 79.2674 135.729 78.9741C136.532 78.6807 137.227 78.0785 137.613 77.2447C137.906 76.5962 137.984 75.9013 137.876 75.2374L137.876 75.2219C137.536 73.1529 138.215 71.0375 139.698 69.5552ZM133.273 95.4958C136.084 92.6855 136.084 88.1305 133.273 85.3203C130.463 82.51 125.907 82.51 123.096 85.3203C120.285 88.1305 120.285 92.6855 123.096 95.4958C125.907 98.306 130.463 98.306 133.273 95.4958Z" fill="#474DFF"/>
<path fill-rule="evenodd" clip-rule="evenodd" d="M128.131 46.9343C152.145 46.9343 171.62 66.4052 171.62 90.4157C171.62 114.426 152.161 133.913 128.131 133.913C104.1 133.913 84.6416 114.442 84.6416 90.4157C84.6416 66.3898 104.116 46.9343 128.131 46.9343ZM151.311 81.1667C155.157 77.3219 155.157 71.0992 151.311 67.2545C147.466 63.4097 141.242 63.4097 137.397 67.2545C135.976 68.675 135.08 70.4353 134.71 72.2727C127.745 69.6478 119.745 71.3154 114.417 76.6425C109.089 81.9696 107.421 89.9679 110.062 96.9472C108.208 97.3178 106.448 98.2134 105.012 99.6494C101.166 103.494 101.166 109.717 105.012 113.562C108.857 117.406 115.081 117.406 118.926 113.562C120.363 112.126 121.274 110.334 121.629 108.482C123.791 109.284 126.046 109.686 128.285 109.686C133.273 109.686 138.2 107.756 141.86 104.096C147.157 98.8001 148.84 90.8481 146.261 83.8843C148.099 83.4982 149.875 82.6027 151.311 81.1667Z" fill="#474DFF"/>
<g clip-path="url(#clip0_3_97)">
<path d="M294.542 112.564L279.85 127.807C279.53 128.138 279.144 128.402 278.714 128.582C278.285 128.762 277.822 128.855 277.354 128.855H207.706C207.373 128.855 207.048 128.761 206.77 128.585C206.492 128.409 206.274 128.158 206.141 127.863C206.009 127.568 205.968 127.242 206.025 126.925C206.081 126.609 206.232 126.315 206.459 126.08L221.162 110.837C221.48 110.507 221.866 110.244 222.294 110.063C222.722 109.883 223.183 109.789 223.65 109.789H293.294C293.627 109.789 293.952 109.883 294.23 110.059C294.507 110.235 294.726 110.486 294.859 110.781C294.991 111.076 295.032 111.402 294.975 111.718C294.919 112.035 294.768 112.329 294.542 112.564ZM279.85 81.8705C279.53 81.5394 279.144 81.2754 278.714 81.095C278.285 80.9147 277.822 80.8217 277.354 80.8219H207.706C207.373 80.8219 207.048 80.9158 206.77 81.0921C206.492 81.2684 206.274 81.5194 206.141 81.8142C206.009 82.109 205.968 82.4349 206.025 82.7517C206.081 83.0685 206.232 83.3625 206.459 83.5976L221.162 98.8399C221.48 99.1701 221.866 99.4335 222.294 99.614C222.722 99.7943 223.183 99.8878 223.65 99.8885H293.294C293.627 99.8885 293.952 99.7946 294.23 99.6183C294.507 99.442 294.726 99.1911 294.859 98.8963C294.991 98.6014 295.032 98.2756 294.975 97.9587C294.919 97.642 294.768 97.348 294.542 97.1128L279.85 81.8705ZM207.706 70.9219H277.354C277.822 70.9221 278.285 70.8292 278.714 70.6487C279.144 70.4683 279.53 70.2043 279.85 69.8732L294.542 54.6309C294.768 54.3958 294.919 54.1019 294.975 53.785C295.032 53.4682 294.991 53.1424 294.859 52.8475C294.726 52.5527 294.507 52.3017 294.23 52.1254C293.952 51.9492 293.627 51.8552 293.294 51.8552H223.65C223.183 51.856 222.722 51.9495 222.294 52.1298C221.866 52.3102 221.48 52.5737 221.162 52.9039L206.462 68.1462C206.236 68.381 206.085 68.6747 206.029 68.9911C205.972 69.3076 206.012 69.6332 206.144 69.9279C206.276 70.2226 206.494 70.4736 206.772 70.6501C207.049 70.8267 207.374 70.9211 207.706 70.9219Z" fill="url(#paint0_linear_3_97)"/>
</g>
<defs>
<linearGradient id="paint0_linear_3_97" x1="213.513" y1="130.69" x2="283.848" y2="48.7256" gradientUnits="userSpaceOnUse">
<stop offset="0.08" stop-color="#9945FF"/>
<stop offset="0.3" stop-color="#8752F3"/>
<stop offset="0.5" stop-color="#5497D5"/>
<stop offset="0.6" stop-color="#43B4CA"/>
<stop offset="0.72" stop-color="#28E0B9"/>
<stop offset="0.97" stop-color="#19FB9B"/>
</linearGradient>
<clipPath id="clip0_3_97">
<rect width="89" height="77" fill="white" transform="translate(206 51.8552)"/>
</clipPath>
</defs>
</svg>
