<svg width="29" height="30" viewBox="0 0 29 30" fill="none" xmlns="http://www.w3.org/2000/svg">
<path d="M27.2502 0.832031H1.75016C1.37444 0.832031 1.0141 0.981287 0.748428 1.24696C0.482752 1.51264 0.333496 1.87297 0.333496 2.2487V27.7487C0.333496 28.1244 0.482752 28.4848 0.748428 28.7504C1.0141 29.0161 1.37444 29.1654 1.75016 29.1654H27.2502C27.6259 29.1654 27.9862 29.0161 28.2519 28.7504C28.5176 28.4848 28.6668 28.1244 28.6668 27.7487V2.2487C28.6668 1.87297 28.5176 1.51264 28.2519 1.24696C27.9862 0.981287 27.6259 0.832031 27.2502 0.832031V0.832031ZM8.8335 26.332H3.16683V3.66536H8.8335V26.332ZM25.8335 26.332H11.6668V16.4154H25.8335V26.332ZM25.8335 13.582H11.6668V3.66536H25.8335V13.582Z" fill="currentColor"/>
</svg>
