<svg width="104" height="92" viewBox="0 0 104 92" fill="none" xmlns="http://www.w3.org/2000/svg">
<path d="M0 91.5055H103.884V0H0V91.5055ZM51.794 41.4014H62.1866V51.625H51.794H41.4436V41.4014H51.794ZM20.6584 20.6585H31.051H41.4436V30.8821H31.051H20.6584V20.6585ZM21.6724 50.9491H31.896V61.1727H21.6724V50.9491ZM72.3679 71.354H62.1866H51.8362H41.7816H41.4436H31.558V61.1304H41.4436H41.7816H51.8362H62.1866H72.3679V71.354V71.354ZM81.9156 61.1727H71.692V50.9491H81.9156V61.1727ZM83.3097 30.8821H72.9171H62.5245V20.6585H72.9171H83.3097V30.8821Z" fill="#EACF1A"/>
<path d="M41.4446 30.8818V20.6582H31.052H20.6594V30.8818H31.052H41.4446Z" fill="#0A1522"/>
<path d="M41.4434 51.624H51.7938H62.1864V41.4004H51.7938H41.4434V51.624Z" fill="#0A1522"/>
<path d="M31.896 50.9492H21.6724V61.1728H31.896V50.9492Z" fill="#0A1522"/>
<path d="M81.9569 50.9492H71.7333V61.1728H81.9569V50.9492Z" fill="#0A1522"/>
<path d="M62.1864 61.1719H51.7938H41.7815H41.4435H31.5579V71.3532H41.4435H41.7815H51.7938H62.1864H72.3678V61.1719H62.1864Z" fill="#0A1522"/>
<path d="M72.9174 20.6582H62.5248V30.8818H72.9174H83.31V20.6582H72.9174Z" fill="#0A1522"/>
</svg>
