<?xml version="1.0" encoding="utf-8"?>
<!-- Generator: Adobe Illustrator 26.1.0, SVG Export Plug-In . SVG Version: 6.00 Build 0)  -->
<svg version="1.1" id="Layer_1" xmlns="http://www.w3.org/2000/svg" xmlns:xlink="http://www.w3.org/1999/xlink" x="0px" y="0px"
	 viewBox="0 0 500 85.5" style="enable-background:new 0 0 500 85.5;" xml:space="preserve">
<style type="text/css">
	.st0{fill-rule:evenodd;clip-rule:evenodd;fill:#02A8F5;}
</style>
<g id="Nebra-Logo-Primary_00000157992477642921068340000011112989095797827263_">
	<g id="Nebra-Logo_00000047755535818278141780000003850824144845631140_">
		<g>
			<g>
				<path class="st0" d="M393.8,85.4h30.5l5.1-13.9h37.3l5.1,13.9h23.7c1.8-1.6,3.2-3.6,4.4-5.7L465.7,0h-34.8l-29.2,67.2
					l-14.8-23.9c7.7-1.9,13.6-8.1,13.6-19.5C400.6,9.6,392.9,0,372,0h-68.1c1.7,9,4,21.4,10.7,28.1c4.6,4.6,11.3,6.8,17.5,8.4V19.2
					h27.4c6.9,0,10.6,3.6,10.6,9.2c0,17.9-38.8,6.5-55.5,23.3c-7.1,7.1-11,24.2-11,33.8h28.5V57h26L376,85.4H393.8z M3.2,85.5h24.4
					v-54h0.2l40.9,54H97c1-1.7,3.1-5.8,3.1-7.7V7.8c0-1.9-2.1-6-3.1-7.6H72.6v53.5h-0.2L32.8,0.1H3.1C1.9,2,0.2,5.5,0,7.7v70
					C0,79.9,2.1,83.8,3.2,85.5L3.2,85.5z M111.9,85.4h79.3c1-1.6,3.1-5.7,3.1-7.6V67h-57.1V51.7h49.9V34h-49.9V18.4h57.1V7.6
					c0-1.9-2.1-6-3.1-7.6h-79.3c-1,1.8-3.1,5.7-3.1,7.8v70C108.7,79.7,110.8,83.8,111.9,85.4L111.9,85.4z M204.8,85.4
					c-1-1.6-3.1-5.7-3.1-7.6V7.6c0-1.9,2.1-6,3.1-7.6h67.3c17.3,0,28,12.9,22.5,23.7c-6.7,11.1-21.5,13.3-33.2,15.4
					c-0.4,0-0.7,0.4-0.7,0.8c0,0.3,0.3,0.6,0.7,0.7c6.1,0.9,12.2,2.4,18.1,4.3c27.2,9.3,26,40.5-9.6,40.5L204.8,85.4z M266.9,25.6
					c0-4.9-4-7.1-8.5-7.2H230v14.5h28.1C264.2,32.9,266.9,29.5,266.9,25.6L266.9,25.6z M270.5,58.1c0-5.8-4.4-8.5-9.8-8.5H230V67
					h30.4C266.4,67,270.5,63.8,270.5,58.1L270.5,58.1z M460.1,53.8h-24L448,21.5h0.2L460.1,53.8z"/>
			</g>
		</g>
	</g>
</g>
</svg>
