<svg width="264" height="45" viewBox="0 0 264 45" fill="none" xmlns="http://www.w3.org/2000/svg">
<g clip-path="url(#clip0_10_5)">
<path fill-rule="evenodd" clip-rule="evenodd" d="M207.64 44.9456H223.688L226.395 37.6467H246.028L248.736 44.9456H261.205C262.133 44.0876 262.911 43.076 263.5 41.9588L245.465 0.0064025H227.148L211.807 35.3546L204.036 22.7929C208.062 21.7845 211.209 18.5128 211.209 12.5329C211.209 5.04838 207.182 0.00960376 196.172 0.00960376H160.338C161.225 4.76026 162.431 11.2876 165.958 14.8058C168.384 17.2323 171.892 18.3944 175.157 19.2331V10.0775H189.566C193.215 10.0775 195.167 11.9631 195.167 14.921C195.167 24.3519 174.75 18.3624 165.962 27.1594C162.242 30.8793 160.188 39.9068 160.188 44.936H175.179V29.9637H188.878L198.275 44.9424H207.64V44.9456ZM2.17072 45H14.9923V16.6113H15.1172L36.638 45H51.5144C52.0617 44.1165 53.1595 41.9748 53.1595 40.9344V4.07839C53.1595 3.07 52.0361 0.912357 51.5144 0.0544213H38.6928V28.1902H38.568L17.7481 0.0544213H2.14511C1.51779 1.06922 0.60562 2.87793 0.5 4.07199V40.9216C0.5 42.0164 1.59461 44.078 2.14511 44.9936L2.17392 45H2.17072ZM59.3399 44.9456H101.031C101.553 44.1004 102.676 41.9268 102.676 40.928V35.249H72.6384V27.1914H98.9122V17.8758H72.6384V9.69339H102.654V4.02397C102.654 3.02198 101.524 0.857936 101.009 0H59.3143C58.767 0.921961 57.6692 2.99317 57.6692 4.088V40.9216C57.6692 41.9236 58.799 44.094 59.3143 44.9392L59.3431 44.9456H59.3399ZM108.204 44.9456C107.656 44.0908 106.558 41.93 106.558 40.9216V4.02397C106.558 3.01558 107.682 0.857936 108.204 0H143.609C152.714 0 158.341 6.77385 155.444 12.4849C151.905 18.3368 144.137 19.4572 137.995 20.5905C137.774 20.6161 137.617 20.8145 137.643 21.0354C137.665 21.2179 137.809 21.3652 137.995 21.3876C141.221 21.887 144.399 22.6393 147.507 23.6412C161.83 28.5392 161.206 44.9424 142.476 44.9424L108.204 44.9488V44.9456ZM140.907 13.4709C140.907 10.8843 138.808 9.7126 136.442 9.69339H121.483V17.306H136.276C139.486 17.306 140.907 15.5421 140.907 13.4709ZM142.792 30.5848C142.792 27.5148 140.469 26.1222 137.636 26.1222H121.483V35.2426H137.483C140.629 35.2426 142.792 33.5427 142.792 30.5848ZM242.514 28.3215H229.913L236.141 11.3324H236.266L242.514 28.3215Z" fill="white"/>
</g>
<defs>
<clipPath id="clip0_10_5">
<rect width="263" height="45" fill="white" transform="translate(0.5)"/>
</clipPath>
</defs>
</svg>
