<svg width="17" height="17" viewBox="0 0 17 17" fill="none" xmlns="http://www.w3.org/2000/svg">
<path d="M14.5714 10.9899V6.01071C15.9569 5.72961 17 4.505 17 3.03632C17 1.35939 15.6412 0.000607099 13.9643 0.000607099C12.4956 0.000607099 11.271 1.04368 10.9899 2.42918H6.01071C5.729 1.04307 4.50439 0 3.03571 0C1.35939 0 0 1.35939 0 3.03571C0 4.50439 1.04307 5.729 2.42857 6.01011V10.9893C1.04307 11.271 0 12.4956 0 13.9643C0 15.6412 1.35879 17 3.03571 17C4.50439 17 5.729 15.9569 6.01011 14.5714H10.9893C11.271 15.9569 12.495 17 13.9637 17C15.6406 17 16.9994 15.6412 16.9994 13.9643C17 12.4956 15.9569 11.271 14.5714 10.9899ZM12.2928 11.4331L9.35911 8.49939L12.2922 5.56629C12.6104 5.77696 12.9698 5.93118 13.3571 6.01011V10.9893C12.9698 11.0682 12.611 11.2224 12.2928 11.4331ZM11.4325 4.70657L8.49939 7.63968L5.56689 4.70718C5.77757 4.38904 5.93179 4.03021 6.01011 3.64286H10.9893C11.0682 4.02961 11.2218 4.38843 11.4325 4.70657ZM4.70718 5.56689L7.63968 8.49939L4.70657 11.4325C4.38843 11.2218 4.02961 11.0682 3.64286 10.9899V6.01071C4.03021 5.93179 4.38904 5.77757 4.70718 5.56689ZM5.56629 12.2922L8.49939 9.35911L11.4331 12.2928C11.2224 12.611 11.0682 12.9698 10.9899 13.3571H6.01071C5.93179 12.9698 5.77757 12.611 5.56629 12.2922Z" fill="#00B196"/>
</svg>
