<svg width="29" height="30" viewBox="0 0 29 30" fill="none" xmlns="http://www.w3.org/2000/svg">
<path d="M14.5 0.833252C6.68004 0.833252 0.333374 7.17992 0.333374 14.9999C0.333374 22.8199 6.68004 29.1666 14.5 29.1666C22.32 29.1666 28.6667 22.8199 28.6667 14.9999C28.6667 7.17992 22.32 0.833252 14.5 0.833252ZM15.9167 24.9166H13.0834V22.0833H15.9167V24.9166ZM18.8492 13.9374L17.5742 15.2408C16.8659 15.9633 16.3559 16.6149 16.1009 17.6349C15.9875 18.0883 15.9167 18.5983 15.9167 19.2499H13.0834V18.5416C13.0834 17.8899 13.1967 17.2666 13.395 16.6858C13.6784 15.8641 14.1459 15.1274 14.7409 14.5324L16.4975 12.7474C17.1492 12.1241 17.4609 11.1891 17.2767 10.1974C17.0925 9.17742 16.2992 8.31325 15.3075 8.02992C13.735 7.59075 12.2759 8.48325 11.8084 9.82909C11.6384 10.3533 11.1992 10.7499 10.6467 10.7499H10.2217C9.40004 10.7499 8.83337 9.95659 9.06004 9.16325C9.66921 7.08075 11.44 5.49409 13.6359 5.15409C15.7892 4.81409 17.8434 5.93325 19.1184 7.70409C20.79 10.0133 20.2942 12.4924 18.8492 13.9374V13.9374Z" fill="white"/>
</svg>
