<?xml version="1.0" encoding="UTF-8"?><svg id="a" xmlns="http://www.w3.org/2000/svg" viewBox="0 0 1000 1000"><defs><style>.b{fill:#424242;}</style></defs><path class="b" d="M672.04,459.07l-27.72,63.86-14.04-22.69c7.28-1.82,12.96-7.73,12.96-18.53,0-13.52-7.28-22.62-27.17-22.62h-64.75c1.6,8.58,3.78,20.37,10.16,26.73,4.39,4.39,10.72,6.48,16.62,8v-16.54h26.04c6.59,0,10.12,3.41,10.12,8.75,0,17.04-36.89,6.22-52.77,22.11-6.72,6.72-10.43,23.03-10.43,32.12h27.09v-27.05h24.75l16.98,27.06h45.92l4.89-13.19h35.47l4.89,13.19h22.53c1.68-1.55,3.08-3.38,4.15-5.4l-32.59-75.79h-33.1Zm5,51.15l11.26-30.69h.23l11.29,30.69h-22.77Z"/><path class="b" d="M392.87,508.19h47.47v-16.83h-47.47v-14.78h54.23v-10.25c0-1.81-2.04-5.72-2.97-7.27h-75.34c-.99,1.66-2.97,5.41-2.97,7.39v66.54c0,1.81,2.04,5.73,2.97,7.26h75.38c.94-1.51,2.97-5.45,2.97-7.25v-10.26h-54.27v-14.55Z"/><path class="b" d="M331.54,459.16v50.83h-.23l-37.62-50.83h-28.2c-1.13,1.83-2.78,5.1-2.97,7.26v66.57c0,1.98,1.98,5.7,2.97,7.36h23.22v-51.27h.23l38.89,51.28h26.88c.99-1.59,2.97-5.46,2.97-7.35v-66.58c0-1.82-2.03-5.72-2.97-7.27h-23.17Z"/><path class="b" d="M528.14,501.76c-5.61-1.81-11.36-3.17-17.19-4.07-.33-.04-.59-.3-.63-.63-.05-.4,.24-.76,.63-.8,11.1-2.05,25.14-4.07,31.53-14.64,5.24-10.32-4.93-22.55-21.38-22.55h-63.97c-.94,1.54-2.97,5.45-2.97,7.27v66.66c0,1.82,1.98,5.72,2.97,7.27h61.92c33.84,0,34.97-29.64,9.09-38.49Zm-47.02-25.19h27.03c4.28,.03,8.07,2.15,8.07,6.82,0,3.74-2.56,6.93-8.37,6.93h-26.73v-13.75Zm28.91,46.15h-28.91v-16.47h29.19c5.12,0,9.32,2.51,9.32,8.06s-3.91,8.42-9.59,8.42Z"/><path class="b" d="M701.51,174.71H298.74c-68.17,0-123.62,55.45-123.62,123.62v402.77c0,68.17,55.45,123.62,123.62,123.62h402.77c68.17,0,123.62-55.45,123.62-123.62V298.32c0-68.17-55.45-123.62-123.62-123.62Zm86.55,526.38c0,47.72-38.83,86.55-86.55,86.55H298.74c-47.72,0-86.55-38.83-86.55-86.55V298.32c0-47.72,38.83-86.55,86.55-86.55h402.77c47.72,0,86.55,38.83,86.55,86.55v402.77Z"/></svg>