<svg width="46" height="45" viewBox="0 0 46 45" fill="none" xmlns="http://www.w3.org/2000/svg">
<g clip-path="url(#clip0_5257_25005)">
<path d="M1.68508 5.94498C1.68508 5.64498 1.76508 5.35498 1.91508 5.10498C2.21508 4.60498 2.73508 4.31498 3.31508 4.31498L42.2451 4.31498C42.8251 4.31498 43.3451 4.61498 43.6451 5.10498C43.7951 5.35498 43.8751 5.64498 43.8751 5.94498L43.8751 41.245C43.8751 41.545 43.7951 41.835 43.6451 42.085C43.3451 42.585 42.8251 42.875 42.2451 42.875L3.31508 42.875C2.73508 42.875 2.21508 42.575 1.91508 42.085C1.76508 41.835 1.68508 41.545 1.68508 41.245L1.68508 5.94498ZM0.205076 5.94498L0.205078 41.245C0.205078 41.835 0.365078 42.385 0.655078 42.855C1.19508 43.755 2.18508 44.355 3.31508 44.355L42.2451 44.355C43.3751 44.355 44.3651 43.755 44.9051 42.855C45.1851 42.385 45.3551 41.835 45.3551 41.245L45.3551 5.94498C45.3551 5.35498 45.1951 4.80498 44.9051 4.33498C44.3651 3.43498 43.3751 2.83498 42.2451 2.83498L3.31508 2.83498C2.18508 2.83498 1.19508 3.43498 0.655076 4.33498C0.375076 4.80498 0.205076 5.35498 0.205076 5.94498Z" fill="#434342"/>
<path d="M40.9951 43.9551L40.9951 3.22508" stroke="#434342" stroke-width="0.61" stroke-linecap="round" stroke-linejoin="round"/>
<path d="M39.655 43.9551L39.655 3.22508" stroke="#434342" stroke-width="0.61" stroke-linecap="round" stroke-linejoin="round"/>
<path d="M38.3149 43.9551L38.3149 3.22508" stroke="#434342" stroke-width="0.61" stroke-linecap="round" stroke-linejoin="round"/>
<path d="M36.9851 43.9551L36.9851 3.22508" stroke="#434342" stroke-width="0.61" stroke-linecap="round" stroke-linejoin="round"/>
<path d="M35.645 43.9551L35.645 3.22508" stroke="#434342" stroke-width="0.61" stroke-linecap="round" stroke-linejoin="round"/>
<path d="M34.3049 43.9551L34.3049 3.22508" stroke="#434342" stroke-width="0.61" stroke-linecap="round" stroke-linejoin="round"/>
<path d="M32.9751 43.9551L32.9751 3.22508" stroke="#434342" stroke-width="0.61" stroke-linecap="round" stroke-linejoin="round"/>
<path d="M31.635 43.9551L31.635 3.22508" stroke="#434342" stroke-width="0.61" stroke-linecap="round" stroke-linejoin="round"/>
<path d="M30.2949 43.9551L30.2949 3.22508" stroke="#434342" stroke-width="0.61" stroke-linecap="round" stroke-linejoin="round"/>
<path d="M28.9551 43.9551L28.9551 3.22508" stroke="#434342" stroke-width="0.61" stroke-linecap="round" stroke-linejoin="round"/>
<path d="M27.625 43.9551L27.625 3.22508" stroke="#434342" stroke-width="0.61" stroke-linecap="round" stroke-linejoin="round"/>
<path d="M26.2849 43.9551L26.2849 3.22508" stroke="#434342" stroke-width="0.61" stroke-linecap="round" stroke-linejoin="round"/>
<path d="M24.9451 43.9551L24.9451 3.22508" stroke="#434342" stroke-width="0.61" stroke-linecap="round" stroke-linejoin="round"/>
<path d="M23.615 43.9551L23.615 3.22508" stroke="#434342" stroke-width="0.61" stroke-linecap="round" stroke-linejoin="round"/>
<path d="M22.2749 43.9551L22.2749 3.22508" stroke="#434342" stroke-width="0.61" stroke-linecap="round" stroke-linejoin="round"/>
<path d="M20.9351 43.9551L20.9351 3.22508" stroke="#434342" stroke-width="0.61" stroke-linecap="round" stroke-linejoin="round"/>
<path d="M19.605 43.9551L19.605 3.22508" stroke="#434342" stroke-width="0.61" stroke-linecap="round" stroke-linejoin="round"/>
<path d="M18.2651 43.9551L18.2651 3.22508" stroke="#434342" stroke-width="0.61" stroke-linecap="round" stroke-linejoin="round"/>
<path d="M16.925 43.9551L16.925 3.22508" stroke="#434342" stroke-width="0.61" stroke-linecap="round" stroke-linejoin="round"/>
<path d="M15.595 43.9551L15.595 3.22508" stroke="#434342" stroke-width="0.61" stroke-linecap="round" stroke-linejoin="round"/>
<path d="M14.2551 43.9551L14.2551 3.22508" stroke="#434342" stroke-width="0.61" stroke-linecap="round" stroke-linejoin="round"/>
<path d="M12.915 43.9551L12.915 3.22508" stroke="#434342" stroke-width="0.61" stroke-linecap="round" stroke-linejoin="round"/>
<path d="M11.585 43.9551L11.585 3.22508" stroke="#434342" stroke-width="0.61" stroke-linecap="round" stroke-linejoin="round"/>
<path d="M10.2451 43.9551L10.2451 3.22508" stroke="#434342" stroke-width="0.61" stroke-linecap="round" stroke-linejoin="round"/>
<path d="M8.90503 43.9551L8.90503 3.22508" stroke="#434342" stroke-width="0.61" stroke-linecap="round" stroke-linejoin="round"/>
<path d="M7.56494 43.9551L7.56494 3.22508" stroke="#434342" stroke-width="0.61" stroke-linecap="round" stroke-linejoin="round"/>
<path d="M6.23511 43.9551L6.23511 3.22508" stroke="#434342" stroke-width="0.61" stroke-linecap="round" stroke-linejoin="round"/>
<path d="M4.89502 43.9551L4.89502 3.22508" stroke="#434342" stroke-width="0.61" stroke-linecap="round" stroke-linejoin="round"/>
<path d="M11.745 3.61499L11.745 2.37499C11.795 2.35499 11.835 2.31499 11.835 2.25499C11.835 2.19499 11.795 2.15499 11.745 2.13499L11.745 2.11499C11.795 2.09499 11.835 2.05499 11.835 1.99499C11.835 1.93499 11.795 1.89499 11.745 1.87499L11.745 1.85499C11.795 1.83499 11.835 1.79499 11.835 1.73499C11.835 1.67499 11.795 1.63499 11.745 1.61499L11.745 1.59499C11.795 1.57499 11.835 1.53499 11.835 1.47499C11.835 1.40499 11.775 1.34499 11.705 1.34499L11.575 1.16499L11.575 0.964992C11.575 0.874992 11.485 0.79499 11.385 0.79499L9.78498 0.794991C9.68498 0.794991 9.60498 0.864993 9.60498 0.964993L9.60498 1.16499L9.48498 1.34499C9.41498 1.34499 9.35498 1.40499 9.35498 1.47499C9.35498 1.52499 9.38498 1.56499 9.42498 1.58499L9.42498 1.61499C9.42498 1.61499 9.35498 1.67499 9.35498 1.72499C9.35498 1.77499 9.38498 1.81499 9.42498 1.83499L9.42498 1.86499C9.42498 1.86499 9.35498 1.92499 9.35498 1.97499C9.35498 2.02499 9.38498 2.06499 9.42498 2.08499L9.42498 2.11499C9.42498 2.11499 9.35498 2.17499 9.35498 2.22499C9.35498 2.27499 9.38498 2.31499 9.42498 2.33499L9.42498 3.58499L11.715 3.58499L11.745 3.61499Z" fill="#434342"/>
<path d="M12.0452 2.83503L12.0452 2.40503L9.17517 2.40503L9.17517 2.83503L12.0452 2.83503Z" fill="#434342"/>
<path d="M12.0452 3.36506L12.0452 2.93506L9.17517 2.93506L9.17517 3.36506L12.0452 3.36506Z" fill="#434342"/>
</g>
<defs>
<clipPath id="clip0_5257_25005">
<rect width="43.56" height="45.15" fill="white" transform="translate(0.205078 44.355) rotate(-90)"/>
</clipPath>
</defs>
</svg>
