<?xml version="1.0" encoding="UTF-8"?><svg id="a" xmlns="http://www.w3.org/2000/svg" viewBox="0 0 1000 1000"><defs><style>.b{fill:#424242;}</style></defs><path class="b" d="M628.27,494.4l-95.89-82.88c-1.79-1.55-4.13-2.32-6.48-2.32s-4.69,.77-6.48,2.32c-3.58,3.09-3.58,8.1,0,11.19l89.42,77.28-89.42,77.28c-3.58,3.09-3.58,8.1,0,11.19,3.58,3.09,9.38,3.09,12.95,0l95.89-82.88c3.58-3.09,3.58-8.1,0-11.19Z"/><path class="b" d="M712.06,493.06l-118.95-102.81c-2.22-1.92-5.13-2.88-8.03-2.88s-5.81,.96-8.03,2.88c-4.44,3.84-4.44,10.05,0,13.89l110.92,95.87-110.92,95.86c-4.44,3.84-4.44,10.05,0,13.89,4.44,3.84,11.63,3.84,16.07,0l118.95-102.81c4.44-3.84,4.44-10.05,0-13.89Z"/><path class="b" d="M439.75,411.52c-3.58-3.09-9.37-3.09-12.95,0l-95.89,82.88c-3.58,3.09-3.58,8.1,0,11.19l95.89,82.88c1.79,1.55,4.13,2.32,6.48,2.32s4.69-.77,6.48-2.32c3.58-3.09,3.58-8.1,0-11.19l-89.42-77.28,89.42-77.28c3.58-3.09,3.58-8.1,0-11.19Z"/><path class="b" d="M382.13,595.86l-110.92-95.87,110.92-95.86c4.44-3.84,4.44-10.05,0-13.89-4.44-3.84-11.63-3.84-16.07,0l-118.95,102.81c-4.44,3.84-4.44,10.05,0,13.89l118.95,102.81c2.22,1.92,5.13,2.88,8.03,2.88s5.81-.96,8.03-2.88c4.44-3.84,4.44-10.05,0-13.89Z"/><path class="b" d="M818.68,407.04v-4.36h.44c.22,.77,.89,1.34,1.73,1.34s1.52-.57,1.73-1.34h.32c.22,.77,.89,1.34,1.73,1.34s1.52-.57,1.73-1.34h.32c.22,.77,.89,1.34,1.73,1.34s1.52-.57,1.73-1.34h.32c.22,.77,.89,1.34,1.73,1.34,1.01,0,1.83-.82,1.83-1.83l2.68-1.82,2.88-.14c1.32,0,2.4-1.16,2.4-2.59v-23.13c0-1.43-1.07-2.59-2.4-2.59l-2.88,.14-2.68-1.82c0-1.01-.82-1.83-1.83-1.83-.73,0-1.35,.44-1.65,1.06h-.49c-.29-.62-.91-1.06-1.65-1.06s-1.35,.44-1.65,1.06h-.49c-.29-.62-.91-1.06-1.65-1.06s-1.35,.44-1.65,1.06h-.49c-.29-.62-.91-1.06-1.65-1.06s-1.35,.44-1.65,1.06h-.53v-4.07h-6.22v4.07h-1.35v-4.07h-6.22v4.07h-.71v-63.19c0-29.45-23.96-53.41-53.42-53.41H208.42c-29.46,0-53.42,23.96-53.42,53.41v387.44c0,29.45,23.96,53.41,53.42,53.41H750.75c29.46,0,53.42-23.96,53.42-53.41v-63.48h.71v4.36h6.22v-4.36h1.35v4.36h6.22v-4.36h.44c.22,.77,.89,1.34,1.73,1.34s1.52-.57,1.73-1.34h.32c.22,.77,.89,1.34,1.73,1.34s1.52-.57,1.73-1.34h.32c.22,.77,.89,1.34,1.73,1.34s1.52-.57,1.73-1.34h.32c.22,.77,.89,1.34,1.73,1.34,1.01,0,1.83-.82,1.83-1.83l2.68-1.82,2.88-.14c1.32,0,2.4-1.16,2.4-2.59v-23.13c0-1.43-1.07-2.59-2.4-2.59l-2.88,.14-2.68-1.82c0-1.01-.82-1.83-1.83-1.83-.73,0-1.35,.44-1.65,1.06h-.49c-.29-.62-.91-1.06-1.65-1.06s-1.35,.44-1.65,1.06h-.49c-.29-.62-.91-1.06-1.65-1.06s-1.35,.44-1.65,1.06h-.49c-.29-.62-.91-1.06-1.65-1.06s-1.35,.44-1.65,1.06h-.53v-4.07h-6.22v4.07h-1.35v-4.07h-6.22v4.07h-.71v-194.35h.71v4.36h6.22v-4.36h1.35v4.36h6.22Zm-51.94,286.68c0,5.2-2.5,9.8-6.35,12.72-2.68,2.04-6.02,3.26-9.64,3.26H208.42c-8.82,0-15.99-7.17-15.99-15.98V306.28c0-8.82,7.17-15.98,15.99-15.98H750.75c1.65,0,3.25,.25,4.75,.72,1.5,.47,2.91,1.15,4.18,2.01,4.25,2.87,7.06,7.74,7.06,13.25v387.44Z"/></svg>