<?xml version="1.0" encoding="UTF-8"?><svg id="a" xmlns="http://www.w3.org/2000/svg" viewBox="0 0 1000 1000"><path d="m530.66,509.44l-19.17,19.17-.13-38.43,19.31,19.26m-19.31,98.23l19.26-19.26-19.17-19.17-.09,38.43Zm74.46-58.77c0,91.89-32.13,112.89-82.72,112.89s-88.89-21.01-88.89-112.89,37.27-115.93,87.86-115.93,83.75,24.09,83.75,115.93Zm-70.84,0l35.49-39.6-55.91-60.02v79.06l-32.98-32.98-12.07,12.02,41.43,41.56-41.43,41.56,12.02,12.02,32.98-32.98,1.03,75.98,56.94-56.98s-37.5-39.64-37.5-39.64Z" style="fill:#424242;"/><path d="m160.44,568.6c.13-.04.26-.08.39-.11,6.61-1.93,11.05-8.08,10.73-14.96-.24-5.08-.36-10.18-.36-15.31,0-87.83,34.2-170.4,96.3-232.5,24.34-24.34,51.83-44.39,81.54-59.78,6.1-3.16,9.19-10.07,7.57-16.75-.02-.1-.05-.2-.07-.3-2.23-9.31-12.7-13.94-21.2-9.55-32.8,16.93-62.67,38.77-89.05,65.16-32.95,32.95-58.82,71.32-76.89,114.04-18.71,44.24-28.2,91.23-28.2,139.67,0,5.65.13,11.28.39,16.89.44,9.51,9.72,16.19,18.85,13.49Z" style="fill:#424242;"/><path d="m650.96,245.95c29.71,15.39,57.2,35.44,81.54,59.78,62.1,62.1,96.3,144.67,96.3,232.5,0,5.12-.12,10.22-.36,15.31-.32,6.88,4.12,13.03,10.73,14.96.13.04.26.08.39.11,9.13,2.7,18.41-3.98,18.85-13.49.26-5.61.39-11.24.39-16.89,0-48.43-9.49-95.42-28.2-139.67-18.07-42.73-43.94-81.1-76.89-114.04-26.39-26.39-56.25-48.23-89.05-65.16-8.5-4.39-18.97.24-21.2,9.55-.02.1-.05.2-.07.3-1.61,6.68,1.47,13.59,7.57,16.75Z" style="fill:#424242;"/><path d="m695.96,816.84c-4.98-4.75-12.53-5.55-18.31-1.82-52.51,33.85-113.68,52.01-177.65,52.01s-125.14-18.15-177.65-52.01c-5.78-3.73-13.34-2.93-18.31,1.82-.08.08-.17.16-.25.24-6.89,6.54-5.77,17.9,2.22,23.04,17.19,11.07,35.32,20.66,54.33,28.7,44.24,18.71,91.23,28.2,139.67,28.2s95.42-9.49,139.67-28.2c19.01-8.04,37.15-17.63,54.33-28.7,7.99-5.14,9.1-16.5,2.22-23.04-.08-.08-.17-.16-.25-.24Z" style="fill:#424242;"/><path d="m443.34,290.87h113.33c21.94,0,39.78-17.85,39.78-39.78v-113.33c0-21.94-17.85-39.78-39.78-39.78h-113.33c-21.94,0-39.78,17.85-39.78,39.78v113.33c0,21.94,17.85,39.78,39.78,39.78Zm-19.35-39.78v-113.33c0-10.67,8.68-19.35,19.35-19.35h113.33c10.67,0,19.35,8.68,19.35,19.35v113.33c0,10.67-8.68,19.35-19.35,19.35h-113.33c-10.67,0-19.35-8.68-19.35-19.35Z" style="fill:#424242;"/><path d="m258.87,613.68h-113.33c-21.94,0-39.78,17.85-39.78,39.78v113.33c0,21.94,17.85,39.78,39.78,39.78h113.33c21.94,0,39.78-17.85,39.78-39.78v-113.33c0-21.94-17.85-39.78-39.78-39.78Zm19.35,39.78v113.33c0,10.67-8.68,19.35-19.35,19.35h-113.33c-10.67,0-19.35-8.68-19.35-19.35v-113.33c0-10.67,8.68-19.35,19.35-19.35h113.33c10.67,0,19.35,8.68,19.35,19.35Z" style="fill:#424242;"/><path d="m854.46,613.68h-113.33c-21.94,0-39.78,17.85-39.78,39.78v113.33c0,21.94,17.85,39.78,39.78,39.78h113.33c21.94,0,39.78-17.85,39.78-39.78v-113.33c0-21.94-17.85-39.78-39.78-39.78Zm19.35,39.78v113.33c0,10.67-8.68,19.35-19.35,19.35h-113.33c-10.67,0-19.35-8.68-19.35-19.35v-113.33c0-10.67,8.68-19.35,19.35-19.35h113.33c10.67,0,19.35,8.68,19.35,19.35Z" style="fill:#424242;"/><path d="m246.39,740.33h-88.37c-4.14,0-7.5,3.36-7.5,7.5s3.36,7.5,7.5,7.5h88.37c4.14,0,7.5-3.36,7.5-7.5s-3.36-7.5-7.5-7.5Z" style="fill:#424242;"/><path d="m246.39,702.62h-88.37c-4.14,0-7.5,3.36-7.5,7.5s3.36,7.5,7.5,7.5h88.37c4.14,0,7.5-3.36,7.5-7.5s-3.36-7.5-7.5-7.5Z" style="fill:#424242;"/><path d="m246.39,664.92h-88.37c-4.14,0-7.5,3.36-7.5,7.5s3.36,7.5,7.5,7.5h88.37c4.14,0,7.5-3.36,7.5-7.5s-3.36-7.5-7.5-7.5Z" style="fill:#424242;"/><circle cx="759.68" cy="748.45" r="18.13" style="fill:#424242;"/><circle cx="809.58" cy="748.45" r="18.13" style="fill:#424242;"/></svg>