<?xml version="1.0" encoding="UTF-8"?><svg id="a" xmlns="http://www.w3.org/2000/svg" viewBox="0 0 1000 1000"><defs><style>.c{fill:#424242;}.d{fill:#fff;fill-rule:evenodd;}</style></defs><path class="c" d="M769.96,745.33h-66.88v-30.08h13.35c2.27,.86,4.7,1.38,7.26,1.38,11.39,0,20.62-9.23,20.62-20.61s-9.23-20.62-20.62-20.62c-2.23,0-4.35,.45-6.36,1.1l.02-.07-14.28-.73V323.95h17.6c1.62,.41,3.3,.69,5.05,.69,11.39,0,20.61-9.23,20.61-20.61s-9.23-20.61-20.61-20.61c-2.88,0-5.62,.6-8.12,1.67l-14.53-.74v-42.41h19.42v10.04c0,3.66,2.99,6.65,6.65,6.65h38.42c3.66,0,6.65-2.99,6.65-6.65v-13.1c.43-.8,.74-1.67,.74-2.64v-8.09c0-3.14-2.57-5.7-5.7-5.7h-66.18v-11.99c0-19.49-15.95-35.44-35.44-35.44H307.47c-19.49,0-35.44,15.95-35.44,35.44v14.48h-39.44c-4.54,0-8.26,3.72-8.26,8.26v22.49c0,4.54,3.72,8.26,8.26,8.26h39.44v25.42c-3.15-1.96-6.84-3.14-10.82-3.14-11.39,0-20.61,9.23-20.61,20.62s9.23,20.61,20.61,20.61c3.98,0,7.67-1.18,10.82-3.14v355.41c-3.15-1.96-6.84-3.14-10.82-3.14-11.39,0-20.61,9.23-20.61,20.62s9.23,20.61,20.61,20.61c3.98,0,7.67-1.18,10.82-3.14v17.27h-39.44c-4.54,0-8.26,3.72-8.26,8.26v22.48c0,4.54,3.72,8.26,8.26,8.26h39.44v18.62c0,19.49,15.95,35.44,35.44,35.44h360.17c19.49,0,35.44-15.95,35.44-35.44v-24.73h19.06v11.96c0,3.66,2.99,6.65,6.66,6.65h38.42c3.66,0,6.65-2.99,6.65-6.65v-13.55c1.1-1.04,1.8-2.49,1.8-4.11v-8.09c0-3.14-2.57-5.7-5.7-5.7Zm-46.26-60.13c5.98,0,10.82,4.84,10.82,10.82s-4.84,10.82-10.82,10.82-10.82-4.84-10.82-10.82,4.84-10.82,10.82-10.82Zm2.03-391.99c5.98,0,10.82,4.84,10.82,10.82s-4.84,10.82-10.82,10.82-10.82-4.84-10.82-10.82,4.84-10.82,10.82-10.82Zm-464.52,414.8c-5.97,0-10.82-4.84-10.82-10.82s4.84-10.82,10.82-10.82,10.82,4.84,10.82,10.82-4.84,10.82-10.82,10.82Zm0-390.37c-5.97,0-10.82-4.84-10.82-10.82s4.84-10.82,10.82-10.82,10.82,4.84,10.82,10.82-4.84,10.82-10.82,10.82Zm51.59,480.17c-8.13,0-14.72-6.61-14.72-14.72v-45.23c.52,.27,1.13,.43,1.86,.43h26.11c.35,0,.85,.07,1.31,.08,1.47,2.06,3.98,3.87,5.74,5.62,15.08,14.97,30.18,29.94,45.28,44.92,2.99,2.96,5.98,5.93,8.97,8.9h-74.54Zm368.89-80.3c-.46-.19-.96-.32-1.56-.32h-18.77c-1.92,0-5.75-.65-8.01-.18-.41-.36-.84-.7-1.02-.87-8.96-8.91-17.92-17.82-26.88-26.74-3.66-3.64-9.33,2.02-5.66,5.66,9.27,9.22,18.35,18.67,27.83,27.67,3.45,3.28,7.3,2.47,11.89,2.47h20.63c.59,0,1.1-.13,1.56-.32v47.65c-.08-.01-.16-.01-.24-.01h-22.92c-.83,0-2.38-.25-3.56-.2-1.23-1.51-4.23-3.77-4.91-4.43-10.87-10.81-21.73-21.63-32.61-32.43-3.66-3.64-9.32,2.02-5.66,5.66,11.32,11.25,22.63,22.51,33.95,33.76,4.14,4.11,5.79,5.65,11.76,5.65h23.96c.08,0,.16,0,.24-.01v2.56c0,8.12-6.61,14.72-14.72,14.72h-44.45c-.07-.81-.43-1.64-1.17-2.38-20.29-20.14-40.58-40.29-60.89-60.43-3.66-3.63-9.33,2.03-5.66,5.66,19.18,19.05,38.39,38.1,57.58,57.15h-49.18c-.07-.81-.44-1.64-1.17-2.38-20.75-20.59-41.49-41.18-62.22-61.77-3.67-3.63-9.33,2.03-5.67,5.66,19.64,19.5,39.29,38.99,58.91,58.48h-45.42c-.19-.48-.49-.95-.93-1.39-19.85-19.69-39.7-39.39-59.55-59.1-3.66-3.63-9.33,2.03-5.66,5.67,18.41,18.26,36.83,36.54,55.24,54.81h-39.86s-.04-.04-.05-.05c-20.29-20.15-40.58-40.29-60.89-60.43-3.66-3.63-9.33,2.03-5.66,5.67,18.41,18.28,36.82,36.54,55.23,54.81h-47.28c-.17-.52-.49-1.03-.97-1.49-11.68-11.59-23.36-23.18-35.04-34.78-7.6-7.53-15.19-15.07-22.8-22.61-2.94-2.91-6.37-7.98-10.68-8.65-9.13-1.42-19.49,0-28.75,0-.72,0-1.33,.16-1.86,.43v-48.3c.52,.28,1.12,.46,1.85,.46h16.51c3.32,0,6.71,.21,10.02,0,.08,0,.39,.01,.74,.03,.98,1.59,3.55,3.34,4.72,4.5,2.68,2.66,5.35,5.31,8.03,7.97,3.67,3.64,7.34,7.28,11,10.92,3.66,3.63,9.33-2.03,5.66-5.66-3.82-3.79-7.64-7.58-11.47-11.37-4.21-4.18-8.33-9.55-13.14-13.04-3.52-2.55-9.49-1.35-13.63-1.35h-18.45c-.73,0-1.33,.19-1.85,.47v-47.54c.52,.28,1.12,.46,1.85,.46h21.53c1.66,0,3.35,.11,5,0,.28-.02,.56,.01,.83,.04,.92,.97,2.43,2.32,2.78,2.67,10.22,10.14,20.45,20.29,30.67,30.43,3.66,3.63,9.33-2.03,5.66-5.66-10.61-10.53-21.23-21.06-31.84-31.58-3.94-3.91-6.4-3.9-11.97-3.9h-22.68c-.73,0-1.33,.19-1.85,.47v-51c.52,.28,1.12,.46,1.85,.46h25.7c.32,0,.88,.06,1.43,.09,1.29,1.37,3.78,3.37,4.21,3.79,3.39,3.36,6.78,6.73,10.17,10.09,20.38,20.22,40.76,40.43,61.14,60.65,5.58,5.53,11.15,11.07,16.73,16.6,3.66,3.63,9.33-2.03,5.66-5.66-14.89-14.77-29.79-29.55-44.68-44.32-10.45-10.37-20.9-20.73-31.35-31.1-5.41-5.37-10.7-12.17-16.85-16.72-3.32-2.45-8.49-1.43-12.45-1.43h-19.71c-.73,0-1.33,.19-1.85,.47v-48.33c.52,.28,1.12,.46,1.85,.46h25.7c.36,0,1.02,.04,1.66,.07,.69,.72,1.6,1.46,2.05,1.91,10.12,10.04,20.25,20.08,30.37,30.12,30.72,30.48,61.45,60.96,92.17,91.43,7.76,7.7,15.52,15.4,23.28,23.09,3.66,3.63,9.33-2.03,5.66-5.66-21.06-20.89-42.12-41.78-63.17-62.67-27.17-26.95-54.34-53.91-81.52-80.86-2.42-2.4-4.29-5.1-7.82-5.45-9.28-.9-19.06,0-28.39,0-.73,0-1.33,.19-1.85,.47v-49.24c.17,.03,.36,.04,.55,.04h25.7c.32,0,.85,.07,1.39,.11,1.86,2.06,6.37,5.89,6.85,6.37,14.98,14.84,29.94,29.7,44.92,44.55,41.09,40.77,82.19,81.54,123.28,122.31,10.11,10.01,20.2,20.04,30.29,30.05,3.67,3.63,9.33-2.03,5.67-5.66-27.63-27.41-55.25-54.81-82.89-82.22-37.71-37.41-75.41-74.81-113.12-112.23-3.2-3.18-6.39-7.41-10.11-10.01-3.36-2.38-8.97-1.27-12.9-1.27h-19.09c-.19,0-.37,.01-.55,.04v-47.14c.17,.03,.36,.04,.55,.04h21.53c1.64,0,3.35,.11,4.99,0,.16-.01,.41,0,.69,.01,.93,1.26,2.74,2.51,3.74,3.5,2.63,2.62,5.26,5.22,7.9,7.84,19.52,19.36,39.03,38.73,58.55,58.08,50.72,50.31,101.44,100.64,152.17,150.96,12.35,12.24,24.68,24.48,37.03,36.72,3.66,3.64,9.32-2.02,5.66-5.66-33.55-33.27-67.1-66.55-100.63-99.83-47.9-47.5-95.78-95.01-143.67-142.51-5.05-5.01-9.88-10.52-15.27-15.15-2.44-2.1-4.74-1.98-7.94-1.98h-24.76c-.19,0-.37,.01-.55,.04v-47.1c.17,.03,.36,.04,.55,.04h28.4c.16,0,1.09,.05,1.96,.08,.21,.17,.4,.32,.48,.41,5.74,6.53,12.48,12.42,18.64,18.54,27.14,26.98,54.28,53.97,81.41,80.95,35.03,34.84,70.07,69.68,105.1,104.53l86.63,86.15c7.74,7.7,15.47,15.39,23.21,23.09,1.36,1.35,2.7,3.08,4.26,4.23,4.65,3.42,14.43,1.38,19.88,1.38h11.55c.59,0,1.11-.11,1.56-.29v50.54Zm0-57.97c-.45-.19-.97-.29-1.56-.29h-20.63c-1.64,0-4.31-.51-6.13-.16-.4-.37-.87-.72-1.13-.99-6.66-6.62-13.32-13.24-19.98-19.86-27.66-27.51-55.31-55.01-82.97-82.51-35.04-34.86-70.1-69.73-105.16-104.58-28.41-28.25-56.8-56.5-85.21-84.74-7.3-7.28-14.62-14.54-21.93-21.81-1.09-1.09-2.2-2.59-3.48-3.47-2.22-1.54-4.32-1.23-6.93-1.23h-27.95c-.19,0-.37,.01-.55,.04v-47.78c.17,.03,.36,.04,.55,.04,9.09,0,18.8,1.04,27.82,0l.28-.04c.39,.36,.84,.69,1.05,.91,6.5,6.46,13,12.94,19.5,19.4,27.45,27.3,54.89,54.6,82.34,81.89,35.31,35.12,70.61,70.23,105.92,105.36,28.93,28.76,57.84,57.51,86.76,86.28,7.8,7.74,15.59,15.5,23.39,23.26,1.39,1.37,2.75,3.14,4.33,4.31,4.62,3.42,14.46,1.38,19.89,1.38h11.55c.08,0,.16,0,.24-.01v44.64Zm0-52.62c-.08-.01-.16-.01-.24-.01h-20.64c-1.56,0-4.35-.49-6.14-.17-.41-.39-.89-.75-1.19-1.04-6.72-6.69-13.44-13.38-20.17-20.06-27.7-27.55-55.4-55.09-83.1-82.65-35.32-35.12-70.63-70.26-105.96-105.38-28.69-28.53-57.36-57.06-86.05-85.57-7.58-7.56-15.18-15.1-22.76-22.64-1.25-1.25-2.5-2.87-3.94-3.92-1.76-1.27-3.03-1.24-5.06-1.28-5.58-.12-11.19,0-16.78,0h-11.04c-.19,0-.37,.01-.55,.04v-48.09c.17,.03,.36,.04,.55,.04h11.09c4.98,0,10.91,.91,15.82,.04,.41,.39,.89,.75,1.15,1,6.53,6.49,13.06,12.98,19.58,19.48,27.51,27.35,55.01,54.71,82.51,82.06,35.31,35.11,70.62,70.23,105.93,105.34,28.85,28.7,57.7,57.39,86.56,86.09,7.7,7.66,15.41,15.31,23.11,22.97,1.39,1.39,2.75,3.14,4.32,4.31,4.61,3.4,14.48,1.37,19.88,1.37h11.55c.59,0,1.11-.11,1.56-.29v48.37Zm0-55.79c-.45-.19-.97-.29-1.56-.29h-20.63c-1.55,0-4.34-.48-6.13-.17-.41-.39-.91-.75-1.2-1.04-6.64-6.59-13.27-13.2-19.92-19.8-27.63-27.49-55.25-54.97-82.89-82.45-35.32-35.12-70.63-70.25-105.94-105.36-28.74-28.58-57.47-57.16-86.21-85.74-7.6-7.56-15.19-15.11-22.79-22.67-1.33-1.32-2.63-3-4.14-4.11-1.54-1.12-2.67-1.24-4.46-1.33-5.34-.28-10.76,0-16.11,0h-11.09c-.19,0-.37,.01-.55,.04v-10.97c0-8.12,6.59-14.72,14.72-14.72h41.12c-.17,1.05,.13,2.2,1.13,3.19,37.41,37.21,74.81,74.41,112.22,111.62,53.76,53.45,107.5,106.92,161.25,160.37,6.27,6.23,12.46,12.58,18.81,18.7,1.8,1.74,2.87,2.52,5.63,2.75,8.93,.72,18.2,0,27.17,0,.59,0,1.11-.11,1.56-.29v52.29Zm0-59.71c-.45-.19-.97-.29-1.56-.29h-26.74c-.04-.05-.08-.08-.09-.11-4.26-5.29-9.93-9.87-14.74-14.64-22.23-22.12-44.47-44.23-66.69-66.33-56.82-56.51-113.63-113.02-170.44-169.51-12.75-12.67-25.5-25.35-38.23-38.02h43.13c.17,.52,.49,1.03,.97,1.49,31.35,31.17,62.69,62.34,94.04,93.53,44.37,44.12,88.74,88.26,133.11,132.38,4.57,4.54,8.93,9.68,13.88,13.8,2.66,2.23,5.51,1.76,8.89,1.76h22.91c.59,0,1.11-.11,1.56-.29v46.24Zm0-53.67c-.45-.19-.97-.29-1.56-.29h-20.01c-.51,0-4.53-.35-6.69-.25-.88-1-2.31-2.02-3.07-2.76-2.35-2.35-4.71-4.69-7.06-7.04-18.06-17.95-36.12-35.92-54.19-53.88-47.23-46.98-94.48-93.96-141.71-140.95-10.08-10.03-20.17-20.05-30.25-30.08h45.44c-.17,1.05,.13,2.2,1.13,3.19,25.06,24.94,50.13,49.86,75.2,74.8,33.91,33.72,67.8,67.43,101.71,101.15,2.59,2.58,5.22,6.13,8.25,8.21,3.54,2.43,9.68,1.19,13.75,1.19h17.49c.59,0,1.11-.11,1.56-.29v47Zm0-54.43c-.45-.19-.97-.29-1.56-.29h-23.43c-.77,0-1.7-.11-2.55-.08-.2-.05-.43-.07-.67-.07-1.71-1.76-4.91-4.65-5.19-4.93-13.35-13.28-26.7-26.57-40.06-39.83-37.1-36.9-74.2-73.81-111.31-110.71-8.34-8.3-16.7-16.62-25.04-24.91h47.39c-.05,.95,.28,1.94,1.16,2.82,41.89,41.65,83.77,83.32,125.66,124.97,2.47,2.46,3.77,3.87,7.52,3.98,8.82,.25,17.7,0,26.53,0,.59,0,1.11-.11,1.56-.29v49.35Zm0-56.78c-.45-.19-.97-.29-1.56-.29h-22.91c-.92,0-2.7-.31-3.92-.19-.33-.28-.63-.53-.71-.6-8.53-8.49-17.07-16.98-25.6-25.47-26.7-26.55-53.4-53.1-80.1-79.67-5.98-5.94-11.95-11.88-17.93-17.82h48.81c-.13,1.03,.19,2.12,1.15,3.07,12.15,12.07,24.28,24.14,36.42,36.22,7.96,7.9,15.91,15.81,23.86,23.72,3.11,3.08,7.52,9.65,12.03,10.77,4.21,1.04,9.76,.07,14.06,.07h14.86c.59,0,1.11-.11,1.56-.29v50.49Zm0-57.91c-.45-.19-.97-.29-1.56-.29h-11.55c-4.73,0-10.43-.85-15.11-.03-.28-.23-.53-.43-.65-.56-2.18-2.42-4.66-4.62-6.97-6.92-15.85-15.77-31.71-31.53-47.55-47.3-3.71-3.67-7.41-7.37-11.11-11.04h79.78c8.12,0,14.72,6.61,14.72,14.72v51.41Z"/><rect class="c" x="369.32" y="668.04" width="243.61" height="60.78" rx="13.58" ry="13.58"/><g id="b"><path class="d" d="M547.92,715.27h12.05l2.03-5.48h14.74l2.03,5.48h9.36c.7-.64,1.28-1.4,1.72-2.24l-13.54-31.49h-13.75l-11.52,26.54-5.83-9.43c3.02-.76,5.39-3.21,5.39-7.7,0-5.62-3.02-9.4-11.29-9.4h-26.91c.67,3.57,1.57,8.47,4.22,11.11,1.82,1.82,4.46,2.69,6.91,3.32v-6.87h10.82c2.74,0,4.2,1.42,4.2,3.64,0,7.08-15.33,2.58-21.93,9.19-2.79,2.79-4.34,9.57-4.34,13.35h11.26v-11.24h10.29l7.06,11.24h7.03Zm-154.29,.04h9.63v-21.31h.09l16.16,21.31h11.17c.41-.66,1.23-2.27,1.23-3.05v-27.67c0-.76-.84-2.38-1.23-3.02h-9.63v21.12h-.09l-15.63-21.12h-11.72c-.47,.76-1.16,2.12-1.23,3.02v27.66c0,.82,.82,2.37,1.23,3.06h.02Zm42.93-.04h31.31c.39-.63,1.23-2.27,1.23-3.02v-4.26h-22.55v-6.05h19.73v-6.99h-19.73v-6.14h22.54v-4.26c0-.75-.85-2.38-1.23-3.02h-31.31c-.41,.69-1.23,2.25-1.23,3.07v27.65c0,.75,.85,2.38,1.23,3.02h.02Zm36.69,0c-.41-.64-1.23-2.26-1.23-3.02v-27.7c0-.76,.84-2.38,1.23-3.02h26.59c6.84,0,11.06,5.09,8.89,9.37-2.66,4.39-8.49,5.23-13.1,6.09-.16,.02-.28,.17-.26,.33,.02,.14,.13,.25,.26,.26,2.42,.37,4.81,.94,7.14,1.69,10.75,3.68,10.29,15.99-3.78,15.99h-25.73Zm24.56-23.62c0-1.94-1.58-2.82-3.35-2.83h-11.23v5.71h11.11c2.41,0,3.48-1.32,3.48-2.88h0Zm1.42,12.85c0-2.3-1.74-3.35-3.87-3.35h-12.13v6.85h12.01c2.36,0,3.99-1.28,3.99-3.5h0Zm74.88-1.7h-9.46l4.68-12.75h.09l4.69,12.75Z"/></g></svg>